# xmcd CD database file
#
# Track frame offsets:
#	150
#	19861
#	41690
#	63303
#	85510
#	105091
#	124733
#	140693
#	159216
#	174849
#	190871
#	213815
#	230893
#	249958
#	269729
#
# Disc length: 3869 seconds
#
# Revision: 4
# Processed by: cddbd v1.5.1PL2 Copyright (c) Steve Scherf et al.
# Submitted via: CDex 1.51
#
DISCID=c00f1b0f
DTITLE=Various Artist - 30 Merengues Pegaditos
DYEAR=2005
DGENRE=Merengue
TTITLE0=Kinito Mendez - Hony Tu Si Jony
TTITLE1=Grupo Mania - Me Miras Y Te Miro
TTITLE2=Eddy Herrera - Tu Eres Ajena
TTITLE3=Proyecto Uno - El Tiburon
TTITLE4=Ilegales - Fiesta Caliente
TTITLE5=Sergio Vargas - Dile
TTITLE6=Diomedes - La Loca
TTITLE7=Wilfrido Vargas - Abusadora
TTITLE8=Opalo - Cuerpo Enojado
TTITLE9=Melina Leon - Cuando Nos Quema El Deseo
TTITLE10=Krisspy - Cuando Volveras
TTITLE11=Pochi Y La Coco Band - La Barriguita
TTITLE12=Team Underground (Cover de Wason Brazoban) - Loca Conmigo
TTITLE13=Team Underground (Cover de Juan Esteban Aristizabal) - La Paga
TTITLE14=Sabor Latino (Cover de Wason Brazoban) - Me Cambiaste La Vida
EXTD=YEAR: 2005
EXTT0=
EXTT1=
EXTT2=
EXTT3=
EXTT4=
EXTT5=
EXTT6=
EXTT7=
EXTT8=
EXTT9=
EXTT10=
EXTT11=
EXTT12=
EXTT13=
EXTT14=
PLAYORDER=
